<mxfile host="app.diagrams.net" agent="Mozilla/5.0 (Windows NT 10.0; Win64; x64) AppleWebKit/537.36 (KHTML, like Gecko) Chrome/131.0.0.0 Safari/537.36 Edg/131.0.0.0" version="25.0.3">
  <diagram name="Страница — 1" id="FpuFNqsItPVQn4xeZ9Ur">
    <mxGraphModel dx="2378" dy="1103" grid="0" gridSize="10" guides="1" tooltips="1" connect="1" arrows="1" fold="1" page="0" pageScale="1" pageWidth="827" pageHeight="1169" math="0" shadow="0">
      <root>
        <mxCell id="0" />
        <mxCell id="1" parent="0" />
        <mxCell id="2eWRijvYDjNiIJWqR0ik-3" style="edgeStyle=orthogonalEdgeStyle;rounded=0;orthogonalLoop=1;jettySize=auto;html=1;entryX=1;entryY=0.5;entryDx=0;entryDy=0;endArrow=open;endFill=0;strokeColor=default;align=center;verticalAlign=middle;fontFamily=Helvetica;fontSize=11;fontColor=default;labelBackgroundColor=default;startArrow=none;startFill=0;" parent="1" source="2eWRijvYDjNiIJWqR0ik-1" target="2eWRijvYDjNiIJWqR0ik-2" edge="1">
          <mxGeometry relative="1" as="geometry" />
        </mxCell>
        <mxCell id="2eWRijvYDjNiIJWqR0ik-1" value="Гость" style="shape=umlActor;verticalLabelPosition=bottom;verticalAlign=top;html=1;outlineConnect=0;" parent="1" vertex="1">
          <mxGeometry x="347" y="372" width="30" height="60" as="geometry" />
        </mxCell>
        <mxCell id="2eWRijvYDjNiIJWqR0ik-2" value="Авторизация под существующим пользователем" style="ellipse;whiteSpace=wrap;html=1;" parent="1" vertex="1">
          <mxGeometry x="140" y="375.5" width="137" height="53" as="geometry" />
        </mxCell>
        <mxCell id="2eWRijvYDjNiIJWqR0ik-4" value="Регистрация в приложении" style="ellipse;whiteSpace=wrap;html=1;" parent="1" vertex="1">
          <mxGeometry x="143" y="256" width="147" height="69" as="geometry" />
        </mxCell>
        <mxCell id="2eWRijvYDjNiIJWqR0ik-6" value="Администратор" style="shape=umlActor;verticalLabelPosition=bottom;verticalAlign=top;html=1;outlineConnect=0;" parent="1" vertex="1">
          <mxGeometry x="424" y="452" width="30" height="60" as="geometry" />
        </mxCell>
        <mxCell id="2eWRijvYDjNiIJWqR0ik-16" value="Пользователь" style="shape=umlActor;verticalLabelPosition=bottom;verticalAlign=top;html=1;outlineConnect=0;" parent="1" vertex="1">
          <mxGeometry x="13" y="495" width="30" height="60" as="geometry" />
        </mxCell>
        <mxCell id="NlARgI9Lwy11cCyt6wGb-3" value="Автор" style="shape=umlActor;verticalLabelPosition=bottom;verticalAlign=top;html=1;outlineConnect=0;" parent="1" vertex="1">
          <mxGeometry x="552" y="388" width="30" height="60" as="geometry" />
        </mxCell>
        <mxCell id="NlARgI9Lwy11cCyt6wGb-4" value="Добавление книг" style="ellipse;whiteSpace=wrap;html=1;" parent="1" vertex="1">
          <mxGeometry x="645" y="610" width="137" height="51" as="geometry" />
        </mxCell>
        <mxCell id="NlARgI9Lwy11cCyt6wGb-6" value="Удаление книг" style="ellipse;whiteSpace=wrap;html=1;" parent="1" vertex="1">
          <mxGeometry x="842" y="596" width="132" height="48" as="geometry" />
        </mxCell>
        <mxCell id="NlARgI9Lwy11cCyt6wGb-8" value="Редактирование книг" style="ellipse;whiteSpace=wrap;html=1;" parent="1" vertex="1">
          <mxGeometry x="474" y="590" width="133" height="54" as="geometry" />
        </mxCell>
        <mxCell id="NlARgI9Lwy11cCyt6wGb-10" value="Управление жанрами, тегами и авторами" style="ellipse;whiteSpace=wrap;html=1;" parent="1" vertex="1">
          <mxGeometry x="305" y="610" width="149" height="58" as="geometry" />
        </mxCell>
        <mxCell id="f_kvPtqis9Xx08yiwRj5-8" value="" style="endArrow=none;html=1;rounded=0;endFill=0;startArrow=block;startFill=0;" parent="1" target="NlARgI9Lwy11cCyt6wGb-3" edge="1">
          <mxGeometry width="50" height="50" relative="1" as="geometry">
            <mxPoint x="44" y="527" as="sourcePoint" />
            <mxPoint x="338" y="288" as="targetPoint" />
          </mxGeometry>
        </mxCell>
        <mxCell id="f_kvPtqis9Xx08yiwRj5-9" value="Управление книгами" style="ellipse;whiteSpace=wrap;html=1;" parent="1" vertex="1">
          <mxGeometry x="632" y="513" width="138" height="54" as="geometry" />
        </mxCell>
        <mxCell id="f_kvPtqis9Xx08yiwRj5-11" value="Управление списками книг" style="ellipse;whiteSpace=wrap;html=1;" parent="1" vertex="1">
          <mxGeometry x="-221.5" y="548" width="170" height="55" as="geometry" />
        </mxCell>
        <mxCell id="f_kvPtqis9Xx08yiwRj5-12" value="Создание списка книг" style="ellipse;whiteSpace=wrap;html=1;" parent="1" vertex="1">
          <mxGeometry x="-170.5" y="459" width="119" height="54" as="geometry" />
        </mxCell>
        <mxCell id="f_kvPtqis9Xx08yiwRj5-13" value="Удаление списка книг" style="ellipse;whiteSpace=wrap;html=1;" parent="1" vertex="1">
          <mxGeometry x="-208" y="630" width="119" height="54" as="geometry" />
        </mxCell>
        <mxCell id="f_kvPtqis9Xx08yiwRj5-17" value="Добавление книги в список" style="ellipse;whiteSpace=wrap;html=1;" parent="1" vertex="1">
          <mxGeometry x="-105" y="315" width="129" height="57" as="geometry" />
        </mxCell>
        <mxCell id="f_kvPtqis9Xx08yiwRj5-18" value="" style="endArrow=classic;html=1;rounded=0;entryX=0.661;entryY=0.025;entryDx=0;entryDy=0;dashed=1;entryPerimeter=0;exitX=0.38;exitY=0.982;exitDx=0;exitDy=0;exitPerimeter=0;" parent="1" source="f_kvPtqis9Xx08yiwRj5-17" target="f_kvPtqis9Xx08yiwRj5-12" edge="1">
          <mxGeometry width="50" height="50" relative="1" as="geometry">
            <mxPoint x="-269" y="494" as="sourcePoint" />
            <mxPoint x="26.5" y="587" as="targetPoint" />
          </mxGeometry>
        </mxCell>
        <mxCell id="f_kvPtqis9Xx08yiwRj5-19" value="&amp;lt;&amp;lt;extend&amp;gt;&amp;gt;" style="text;html=1;align=center;verticalAlign=middle;resizable=0;points=[];autosize=1;strokeColor=none;fillColor=none;rotation=-75;" parent="1" vertex="1">
          <mxGeometry x="-133.5" y="398" width="82" height="26" as="geometry" />
        </mxCell>
        <mxCell id="f_kvPtqis9Xx08yiwRj5-21" value="" style="endArrow=none;html=1;rounded=0;exitX=0.5;exitY=0;exitDx=0;exitDy=0;entryX=0.47;entryY=0.994;entryDx=0;entryDy=0;entryPerimeter=0;endFill=0;startArrow=open;startFill=0;strokeColor=default;align=center;verticalAlign=middle;fontFamily=Helvetica;fontSize=11;fontColor=default;labelBackgroundColor=default;" parent="1" source="f_kvPtqis9Xx08yiwRj5-13" target="f_kvPtqis9Xx08yiwRj5-11" edge="1">
          <mxGeometry width="50" height="50" relative="1" as="geometry">
            <mxPoint x="-103.5" y="614" as="sourcePoint" />
            <mxPoint x="-53.5" y="564" as="targetPoint" />
          </mxGeometry>
        </mxCell>
        <mxCell id="f_kvPtqis9Xx08yiwRj5-22" value="" style="endArrow=none;html=1;rounded=0;entryX=0.548;entryY=0.009;entryDx=0;entryDy=0;entryPerimeter=0;exitX=0.409;exitY=0.986;exitDx=0;exitDy=0;exitPerimeter=0;endFill=0;startArrow=open;startFill=0;" parent="1" source="f_kvPtqis9Xx08yiwRj5-12" target="f_kvPtqis9Xx08yiwRj5-11" edge="1">
          <mxGeometry width="50" height="50" relative="1" as="geometry">
            <mxPoint x="-283.5" y="755" as="sourcePoint" />
            <mxPoint x="-233.5" y="705" as="targetPoint" />
          </mxGeometry>
        </mxCell>
        <mxCell id="f_kvPtqis9Xx08yiwRj5-23" value="" style="endArrow=block;html=1;rounded=0;endFill=0;" parent="1" source="2eWRijvYDjNiIJWqR0ik-6" edge="1">
          <mxGeometry width="50" height="50" relative="1" as="geometry">
            <mxPoint x="458" y="503" as="sourcePoint" />
            <mxPoint x="57" y="531" as="targetPoint" />
          </mxGeometry>
        </mxCell>
        <mxCell id="f_kvPtqis9Xx08yiwRj5-25" value="Добавление жанра" style="ellipse;whiteSpace=wrap;html=1;" parent="1" vertex="1">
          <mxGeometry x="220" y="743" width="85" height="43" as="geometry" />
        </mxCell>
        <mxCell id="f_kvPtqis9Xx08yiwRj5-26" value="Удаление жанра" style="ellipse;whiteSpace=wrap;html=1;" parent="1" vertex="1">
          <mxGeometry x="384" y="750" width="132" height="39" as="geometry" />
        </mxCell>
        <mxCell id="f_kvPtqis9Xx08yiwRj5-28" value="" style="endArrow=open;html=1;rounded=0;entryX=0.022;entryY=0.36;entryDx=0;entryDy=0;entryPerimeter=0;endFill=0;strokeColor=default;align=center;verticalAlign=middle;fontFamily=Helvetica;fontSize=11;fontColor=default;labelBackgroundColor=default;startArrow=none;startFill=0;" parent="1" source="2eWRijvYDjNiIJWqR0ik-6" target="f_kvPtqis9Xx08yiwRj5-9" edge="1">
          <mxGeometry width="50" height="50" relative="1" as="geometry">
            <mxPoint x="508" y="515" as="sourcePoint" />
            <mxPoint x="608" y="473" as="targetPoint" />
          </mxGeometry>
        </mxCell>
        <mxCell id="f_kvPtqis9Xx08yiwRj5-29" value="" style="endArrow=open;html=1;rounded=0;entryX=0.879;entryY=0.835;entryDx=0;entryDy=0;entryPerimeter=0;endFill=0;strokeColor=default;align=center;verticalAlign=middle;fontFamily=Helvetica;fontSize=11;fontColor=default;labelBackgroundColor=default;startArrow=none;startFill=0;" parent="1" source="2eWRijvYDjNiIJWqR0ik-1" target="2eWRijvYDjNiIJWqR0ik-4" edge="1">
          <mxGeometry width="50" height="50" relative="1" as="geometry">
            <mxPoint x="251" y="379" as="sourcePoint" />
            <mxPoint x="301" y="329" as="targetPoint" />
          </mxGeometry>
        </mxCell>
        <mxCell id="f_kvPtqis9Xx08yiwRj5-30" value="" style="endArrow=open;html=1;rounded=0;entryX=0.921;entryY=0.223;entryDx=0;entryDy=0;entryPerimeter=0;endFill=0;strokeColor=default;align=center;verticalAlign=middle;fontFamily=Helvetica;fontSize=11;fontColor=default;labelBackgroundColor=default;startArrow=none;startFill=0;" parent="1" source="2eWRijvYDjNiIJWqR0ik-16" target="f_kvPtqis9Xx08yiwRj5-11" edge="1">
          <mxGeometry width="50" height="50" relative="1" as="geometry">
            <mxPoint x="-201" y="597" as="sourcePoint" />
            <mxPoint x="-151" y="547" as="targetPoint" />
          </mxGeometry>
        </mxCell>
        <mxCell id="f_kvPtqis9Xx08yiwRj5-35" value="Управление закладками" style="ellipse;whiteSpace=wrap;html=1;" parent="1" vertex="1">
          <mxGeometry x="-40" y="198" width="121" height="58" as="geometry" />
        </mxCell>
        <mxCell id="f_kvPtqis9Xx08yiwRj5-36" value="Добавление закладки" style="ellipse;whiteSpace=wrap;html=1;" parent="1" vertex="1">
          <mxGeometry x="-255" y="54" width="110" height="45" as="geometry" />
        </mxCell>
        <mxCell id="f_kvPtqis9Xx08yiwRj5-37" value="Удаление закладки" style="ellipse;whiteSpace=wrap;html=1;" parent="1" vertex="1">
          <mxGeometry x="-33" y="16" width="114" height="53.5" as="geometry" />
        </mxCell>
        <mxCell id="f_kvPtqis9Xx08yiwRj5-38" value="" style="endArrow=none;html=1;rounded=0;entryX=0.076;entryY=0.235;entryDx=0;entryDy=0;entryPerimeter=0;exitX=0.987;exitY=0.591;exitDx=0;exitDy=0;exitPerimeter=0;endFill=0;startArrow=classic;startFill=1;dashed=1;" parent="1" source="f_kvPtqis9Xx08yiwRj5-36" target="f_kvPtqis9Xx08yiwRj5-35" edge="1">
          <mxGeometry width="50" height="50" relative="1" as="geometry">
            <mxPoint x="-35" y="760" as="sourcePoint" />
            <mxPoint x="7" y="718" as="targetPoint" />
          </mxGeometry>
        </mxCell>
        <mxCell id="f_kvPtqis9Xx08yiwRj5-39" value="" style="endArrow=none;html=1;rounded=0;exitX=0.749;exitY=0.929;exitDx=0;exitDy=0;exitPerimeter=0;endFill=0;startArrow=classic;startFill=1;strokeColor=default;align=center;verticalAlign=middle;fontFamily=Helvetica;fontSize=11;fontColor=default;labelBackgroundColor=default;entryX=0.77;entryY=0.077;entryDx=0;entryDy=0;entryPerimeter=0;dashed=1;" parent="1" source="f_kvPtqis9Xx08yiwRj5-37" target="f_kvPtqis9Xx08yiwRj5-35" edge="1">
          <mxGeometry width="50" height="50" relative="1" as="geometry">
            <mxPoint x="31.980000000000018" y="67.9975" as="sourcePoint" />
            <mxPoint x="58" y="204.73" as="targetPoint" />
          </mxGeometry>
        </mxCell>
        <mxCell id="f_kvPtqis9Xx08yiwRj5-42" value="" style="endArrow=classic;html=1;rounded=0;dashed=1;exitX=0.5;exitY=0;exitDx=0;exitDy=0;entryX=0.942;entryY=0.734;entryDx=0;entryDy=0;entryPerimeter=0;" parent="1" source="f_kvPtqis9Xx08yiwRj5-89" target="f_kvPtqis9Xx08yiwRj5-36" edge="1">
          <mxGeometry width="50" height="50" relative="1" as="geometry">
            <mxPoint x="-130" y="233" as="sourcePoint" />
            <mxPoint x="-29" y="283" as="targetPoint" />
          </mxGeometry>
        </mxCell>
        <mxCell id="f_kvPtqis9Xx08yiwRj5-43" value="&amp;lt;&amp;lt;extend&amp;gt;&amp;gt;" style="text;html=1;align=center;verticalAlign=middle;resizable=0;points=[];autosize=1;strokeColor=none;fillColor=none;rotation=75;" parent="1" vertex="1">
          <mxGeometry x="-160" y="133" width="82" height="26" as="geometry" />
        </mxCell>
        <mxCell id="f_kvPtqis9Xx08yiwRj5-44" value="" style="endArrow=open;html=1;rounded=0;entryX=0.641;entryY=0.976;entryDx=0;entryDy=0;endFill=0;entryPerimeter=0;" parent="1" target="f_kvPtqis9Xx08yiwRj5-35" edge="1">
          <mxGeometry width="50" height="50" relative="1" as="geometry">
            <mxPoint x="21" y="480" as="sourcePoint" />
            <mxPoint x="137" y="602" as="targetPoint" />
          </mxGeometry>
        </mxCell>
        <mxCell id="f_kvPtqis9Xx08yiwRj5-45" value="" style="endArrow=open;html=1;rounded=0;entryX=0.372;entryY=0.021;entryDx=0;entryDy=0;entryPerimeter=0;endFill=0;strokeColor=default;align=center;verticalAlign=middle;fontFamily=Helvetica;fontSize=11;fontColor=default;labelBackgroundColor=default;startArrow=none;startFill=0;" parent="1" source="NlARgI9Lwy11cCyt6wGb-3" target="f_kvPtqis9Xx08yiwRj5-9" edge="1">
          <mxGeometry width="50" height="50" relative="1" as="geometry">
            <mxPoint x="659" y="520" as="sourcePoint" />
            <mxPoint x="709" y="470" as="targetPoint" />
          </mxGeometry>
        </mxCell>
        <mxCell id="f_kvPtqis9Xx08yiwRj5-46" value="Чтение и скачивание книг" style="ellipse;whiteSpace=wrap;html=1;" parent="1" vertex="1">
          <mxGeometry x="81" y="580" width="117" height="50" as="geometry" />
        </mxCell>
        <mxCell id="f_kvPtqis9Xx08yiwRj5-47" value="" style="endArrow=open;html=1;rounded=0;exitX=0.679;exitY=0.969;exitDx=0;exitDy=0;exitPerimeter=0;entryX=0.5;entryY=0;entryDx=0;entryDy=0;endFill=0;strokeColor=default;align=center;verticalAlign=middle;fontFamily=Helvetica;fontSize=11;fontColor=default;labelBackgroundColor=default;startArrow=none;startFill=0;" parent="1" source="NlARgI9Lwy11cCyt6wGb-10" target="f_kvPtqis9Xx08yiwRj5-26" edge="1">
          <mxGeometry width="50" height="50" relative="1" as="geometry">
            <mxPoint x="169" y="686" as="sourcePoint" />
            <mxPoint x="219" y="636" as="targetPoint" />
          </mxGeometry>
        </mxCell>
        <mxCell id="f_kvPtqis9Xx08yiwRj5-49" value="" style="endArrow=open;html=1;rounded=0;exitX=0;exitY=1;exitDx=0;exitDy=0;entryX=0.749;entryY=0.049;entryDx=0;entryDy=0;endFill=0;entryPerimeter=0;strokeColor=default;align=center;verticalAlign=middle;fontFamily=Helvetica;fontSize=11;fontColor=default;labelBackgroundColor=default;startArrow=none;startFill=0;" parent="1" source="NlARgI9Lwy11cCyt6wGb-10" target="f_kvPtqis9Xx08yiwRj5-25" edge="1">
          <mxGeometry width="50" height="50" relative="1" as="geometry">
            <mxPoint x="439" y="731" as="sourcePoint" />
            <mxPoint x="471" y="770" as="targetPoint" />
          </mxGeometry>
        </mxCell>
        <mxCell id="f_kvPtqis9Xx08yiwRj5-50" value="" style="endArrow=open;html=1;rounded=0;exitX=0.059;exitY=0.745;exitDx=0;exitDy=0;exitPerimeter=0;entryX=0.834;entryY=0.125;entryDx=0;entryDy=0;entryPerimeter=0;endFill=0;strokeColor=default;align=center;verticalAlign=middle;fontFamily=Helvetica;fontSize=11;fontColor=default;labelBackgroundColor=default;startArrow=none;startFill=0;" parent="1" source="f_kvPtqis9Xx08yiwRj5-9" target="NlARgI9Lwy11cCyt6wGb-8" edge="1">
          <mxGeometry width="50" height="50" relative="1" as="geometry">
            <mxPoint x="613" y="626" as="sourcePoint" />
            <mxPoint x="663" y="576" as="targetPoint" />
          </mxGeometry>
        </mxCell>
        <mxCell id="f_kvPtqis9Xx08yiwRj5-51" value="" style="endArrow=open;html=1;rounded=0;exitX=0.561;exitY=0.993;exitDx=0;exitDy=0;exitPerimeter=0;entryX=0.5;entryY=0;entryDx=0;entryDy=0;endFill=0;strokeColor=default;align=center;verticalAlign=middle;fontFamily=Helvetica;fontSize=11;fontColor=default;labelBackgroundColor=default;startArrow=none;startFill=0;" parent="1" source="f_kvPtqis9Xx08yiwRj5-9" target="NlARgI9Lwy11cCyt6wGb-4" edge="1">
          <mxGeometry width="50" height="50" relative="1" as="geometry">
            <mxPoint x="732" y="579" as="sourcePoint" />
            <mxPoint x="677" y="623" as="targetPoint" />
          </mxGeometry>
        </mxCell>
        <mxCell id="f_kvPtqis9Xx08yiwRj5-52" value="" style="endArrow=open;html=1;rounded=0;exitX=0.982;exitY=0.626;exitDx=0;exitDy=0;exitPerimeter=0;endFill=0;strokeColor=default;align=center;verticalAlign=middle;fontFamily=Helvetica;fontSize=11;fontColor=default;labelBackgroundColor=default;startArrow=none;startFill=0;" parent="1" source="f_kvPtqis9Xx08yiwRj5-9" target="NlARgI9Lwy11cCyt6wGb-6" edge="1">
          <mxGeometry width="50" height="50" relative="1" as="geometry">
            <mxPoint x="660" y="573" as="sourcePoint" />
            <mxPoint x="605" y="617" as="targetPoint" />
          </mxGeometry>
        </mxCell>
        <mxCell id="f_kvPtqis9Xx08yiwRj5-53" value="Чтение книг онлайн" style="ellipse;whiteSpace=wrap;html=1;" parent="1" vertex="1">
          <mxGeometry x="118" y="662" width="84" height="44" as="geometry" />
        </mxCell>
        <mxCell id="f_kvPtqis9Xx08yiwRj5-54" value="" style="endArrow=none;html=1;rounded=0;exitX=0.5;exitY=0;exitDx=0;exitDy=0;endFill=0;startArrow=open;startFill=0;entryX=0.622;entryY=0.992;entryDx=0;entryDy=0;entryPerimeter=0;strokeColor=default;align=center;verticalAlign=middle;fontFamily=Helvetica;fontSize=11;fontColor=default;labelBackgroundColor=default;" parent="1" source="f_kvPtqis9Xx08yiwRj5-53" target="f_kvPtqis9Xx08yiwRj5-46" edge="1">
          <mxGeometry width="50" height="50" relative="1" as="geometry">
            <mxPoint x="202" y="687" as="sourcePoint" />
            <mxPoint x="157" y="633" as="targetPoint" />
          </mxGeometry>
        </mxCell>
        <mxCell id="f_kvPtqis9Xx08yiwRj5-55" value="Скачивание книг" style="ellipse;whiteSpace=wrap;html=1;" parent="1" vertex="1">
          <mxGeometry x="217" y="655" width="84" height="44" as="geometry" />
        </mxCell>
        <mxCell id="f_kvPtqis9Xx08yiwRj5-57" value="" style="endArrow=none;html=1;rounded=0;exitX=0.302;exitY=0.038;exitDx=0;exitDy=0;endFill=0;startArrow=open;startFill=0;entryX=0.919;entryY=0.788;entryDx=0;entryDy=0;entryPerimeter=0;exitPerimeter=0;strokeColor=default;align=center;verticalAlign=middle;fontFamily=Helvetica;fontSize=11;fontColor=default;labelBackgroundColor=default;" parent="1" source="f_kvPtqis9Xx08yiwRj5-55" target="f_kvPtqis9Xx08yiwRj5-46" edge="1">
          <mxGeometry width="50" height="50" relative="1" as="geometry">
            <mxPoint x="236" y="655" as="sourcePoint" />
            <mxPoint x="233" y="626" as="targetPoint" />
          </mxGeometry>
        </mxCell>
        <mxCell id="f_kvPtqis9Xx08yiwRj5-58" value="" style="endArrow=none;html=1;rounded=0;exitX=0;exitY=0;exitDx=0;exitDy=0;endFill=0;startArrow=block;startFill=0;" parent="1" source="f_kvPtqis9Xx08yiwRj5-46" target="2eWRijvYDjNiIJWqR0ik-16" edge="1">
          <mxGeometry width="50" height="50" relative="1" as="geometry">
            <mxPoint x="180" y="682" as="sourcePoint" />
            <mxPoint x="177" y="653" as="targetPoint" />
          </mxGeometry>
        </mxCell>
        <mxCell id="f_kvPtqis9Xx08yiwRj5-59" value="Поиск книг" style="ellipse;whiteSpace=wrap;html=1;" parent="1" vertex="1">
          <mxGeometry x="86" y="202" width="95" height="34" as="geometry" />
        </mxCell>
        <mxCell id="f_kvPtqis9Xx08yiwRj5-60" value="" style="endArrow=open;html=1;rounded=0;entryX=0;entryY=1;entryDx=0;entryDy=0;endFill=0;strokeColor=default;align=center;verticalAlign=middle;fontFamily=Helvetica;fontSize=11;fontColor=default;labelBackgroundColor=default;startArrow=none;startFill=0;" parent="1" target="f_kvPtqis9Xx08yiwRj5-59" edge="1">
          <mxGeometry width="50" height="50" relative="1" as="geometry">
            <mxPoint x="27.89596879063719" y="492" as="sourcePoint" />
            <mxPoint x="20" y="411" as="targetPoint" />
          </mxGeometry>
        </mxCell>
        <mxCell id="f_kvPtqis9Xx08yiwRj5-61" value="Поиск по названию" style="ellipse;whiteSpace=wrap;html=1;" parent="1" vertex="1">
          <mxGeometry x="212" y="107" width="89" height="35" as="geometry" />
        </mxCell>
        <mxCell id="f_kvPtqis9Xx08yiwRj5-62" value="Поиск по автору" style="ellipse;whiteSpace=wrap;html=1;" parent="1" vertex="1">
          <mxGeometry x="77" y="104" width="89" height="35" as="geometry" />
        </mxCell>
        <mxCell id="f_kvPtqis9Xx08yiwRj5-63" value="Поиск по жанру" style="ellipse;whiteSpace=wrap;html=1;" parent="1" vertex="1">
          <mxGeometry x="314" y="138" width="81" height="39" as="geometry" />
        </mxCell>
        <mxCell id="f_kvPtqis9Xx08yiwRj5-64" value="" style="endArrow=open;html=1;rounded=0;exitX=0;exitY=0;exitDx=0;exitDy=0;entryX=0.348;entryY=0.948;entryDx=0;entryDy=0;entryPerimeter=0;endFill=0;strokeColor=default;align=center;verticalAlign=middle;fontFamily=Helvetica;fontSize=11;fontColor=default;labelBackgroundColor=default;startArrow=none;startFill=0;" parent="1" source="f_kvPtqis9Xx08yiwRj5-59" target="f_kvPtqis9Xx08yiwRj5-62" edge="1">
          <mxGeometry width="50" height="50" relative="1" as="geometry">
            <mxPoint x="97" y="193" as="sourcePoint" />
            <mxPoint x="147" y="143" as="targetPoint" />
          </mxGeometry>
        </mxCell>
        <mxCell id="f_kvPtqis9Xx08yiwRj5-65" value="" style="endArrow=open;html=1;rounded=0;entryX=0;entryY=1;entryDx=0;entryDy=0;endFill=0;exitX=0.664;exitY=0.022;exitDx=0;exitDy=0;exitPerimeter=0;strokeColor=default;align=center;verticalAlign=middle;fontFamily=Helvetica;fontSize=11;fontColor=default;labelBackgroundColor=default;startArrow=none;startFill=0;" parent="1" source="f_kvPtqis9Xx08yiwRj5-59" target="f_kvPtqis9Xx08yiwRj5-61" edge="1">
          <mxGeometry width="50" height="50" relative="1" as="geometry">
            <mxPoint x="144" y="202" as="sourcePoint" />
            <mxPoint x="171.5" y="120" as="targetPoint" />
          </mxGeometry>
        </mxCell>
        <mxCell id="f_kvPtqis9Xx08yiwRj5-66" value="" style="endArrow=open;html=1;rounded=0;exitX=0.947;exitY=0.283;exitDx=0;exitDy=0;entryX=0;entryY=0.5;entryDx=0;entryDy=0;endFill=0;exitPerimeter=0;strokeColor=default;align=center;verticalAlign=middle;fontFamily=Helvetica;fontSize=11;fontColor=default;labelBackgroundColor=default;startArrow=none;startFill=0;" parent="1" source="f_kvPtqis9Xx08yiwRj5-59" target="f_kvPtqis9Xx08yiwRj5-63" edge="1">
          <mxGeometry width="50" height="50" relative="1" as="geometry">
            <mxPoint x="120" y="227" as="sourcePoint" />
            <mxPoint x="128" y="157" as="targetPoint" />
          </mxGeometry>
        </mxCell>
        <mxCell id="f_kvPtqis9Xx08yiwRj5-68" value="Добавление тега" style="ellipse;whiteSpace=wrap;html=1;" parent="1" vertex="1">
          <mxGeometry x="316" y="804" width="92" height="44" as="geometry" />
        </mxCell>
        <mxCell id="f_kvPtqis9Xx08yiwRj5-69" value="" style="endArrow=open;html=1;rounded=0;exitX=0.427;exitY=1.002;exitDx=0;exitDy=0;exitPerimeter=0;endFill=0;strokeColor=default;align=center;verticalAlign=middle;fontFamily=Helvetica;fontSize=11;fontColor=default;labelBackgroundColor=default;startArrow=none;startFill=0;" parent="1" source="NlARgI9Lwy11cCyt6wGb-10" edge="1">
          <mxGeometry width="50" height="50" relative="1" as="geometry">
            <mxPoint x="364" y="768" as="sourcePoint" />
            <mxPoint x="365" y="804" as="targetPoint" />
          </mxGeometry>
        </mxCell>
        <mxCell id="f_kvPtqis9Xx08yiwRj5-70" value="Оставление отзывов и оценок" style="ellipse;whiteSpace=wrap;html=1;" parent="1" vertex="1">
          <mxGeometry x="-221.5" y="720" width="114.5" height="57" as="geometry" />
        </mxCell>
        <mxCell id="f_kvPtqis9Xx08yiwRj5-71" value="" style="endArrow=classic;html=1;rounded=0;entryX=0.904;entryY=0.198;entryDx=0;entryDy=0;entryPerimeter=0;" parent="1" target="f_kvPtqis9Xx08yiwRj5-70" edge="1">
          <mxGeometry width="50" height="50" relative="1" as="geometry">
            <mxPoint x="2" y="577" as="sourcePoint" />
            <mxPoint x="-15" y="629" as="targetPoint" />
          </mxGeometry>
        </mxCell>
        <mxCell id="f_kvPtqis9Xx08yiwRj5-72" value="Оставить отзыв" style="ellipse;whiteSpace=wrap;html=1;" parent="1" vertex="1">
          <mxGeometry x="-371" y="838" width="99" height="43" as="geometry" />
        </mxCell>
        <mxCell id="f_kvPtqis9Xx08yiwRj5-75" value="" style="endArrow=classic;html=1;rounded=0;entryX=1;entryY=0;entryDx=0;entryDy=0;dashed=1;exitX=0;exitY=1;exitDx=0;exitDy=0;" parent="1" source="f_kvPtqis9Xx08yiwRj5-70" target="f_kvPtqis9Xx08yiwRj5-72" edge="1">
          <mxGeometry width="50" height="50" relative="1" as="geometry">
            <mxPoint x="-314" y="720" as="sourcePoint" />
            <mxPoint x="-339" y="809" as="targetPoint" />
          </mxGeometry>
        </mxCell>
        <mxCell id="f_kvPtqis9Xx08yiwRj5-76" value="&amp;lt;&amp;lt;include&amp;gt;&amp;gt;" style="text;html=1;align=center;verticalAlign=middle;resizable=0;points=[];autosize=1;strokeColor=none;fillColor=none;rotation=-45;" parent="1" vertex="1">
          <mxGeometry x="-296" y="782.25" width="84" height="26" as="geometry" />
        </mxCell>
        <mxCell id="f_kvPtqis9Xx08yiwRj5-77" value="Поставить оценку" style="ellipse;whiteSpace=wrap;html=1;" parent="1" vertex="1">
          <mxGeometry x="-220" y="874" width="113" height="37" as="geometry" />
        </mxCell>
        <mxCell id="f_kvPtqis9Xx08yiwRj5-78" value="" style="endArrow=classic;html=1;rounded=0;entryX=0.663;entryY=0;entryDx=0;entryDy=0;dashed=1;exitX=0.667;exitY=0.981;exitDx=0;exitDy=0;exitPerimeter=0;entryPerimeter=0;" parent="1" source="f_kvPtqis9Xx08yiwRj5-70" target="f_kvPtqis9Xx08yiwRj5-77" edge="1">
          <mxGeometry width="50" height="50" relative="1" as="geometry">
            <mxPoint x="-129" y="788.5" as="sourcePoint" />
            <mxPoint x="-210" y="863.5" as="targetPoint" />
          </mxGeometry>
        </mxCell>
        <mxCell id="f_kvPtqis9Xx08yiwRj5-79" value="&amp;lt;&amp;lt;include&amp;gt;&amp;gt;" style="text;html=1;align=center;verticalAlign=middle;resizable=0;points=[];autosize=1;strokeColor=none;fillColor=none;rotation=-90;" parent="1" vertex="1">
          <mxGeometry x="-200" y="808.25" width="84" height="26" as="geometry" />
        </mxCell>
        <mxCell id="f_kvPtqis9Xx08yiwRj5-80" value="" style="endArrow=block;html=1;rounded=0;endFill=0;" parent="1" source="2eWRijvYDjNiIJWqR0ik-16" target="2eWRijvYDjNiIJWqR0ik-1" edge="1">
          <mxGeometry width="50" height="50" relative="1" as="geometry">
            <mxPoint x="105" y="498" as="sourcePoint" />
            <mxPoint x="155" y="448" as="targetPoint" />
          </mxGeometry>
        </mxCell>
        <mxCell id="f_kvPtqis9Xx08yiwRj5-82" value="Удаление тега" style="ellipse;whiteSpace=wrap;html=1;" parent="1" vertex="1">
          <mxGeometry x="505" y="793" width="102" height="36" as="geometry" />
        </mxCell>
        <mxCell id="f_kvPtqis9Xx08yiwRj5-83" value="" style="endArrow=open;html=1;rounded=0;exitX=1;exitY=1;exitDx=0;exitDy=0;entryX=0.5;entryY=0;entryDx=0;entryDy=0;endFill=0;" parent="1" source="NlARgI9Lwy11cCyt6wGb-10" target="f_kvPtqis9Xx08yiwRj5-82" edge="1">
          <mxGeometry width="50" height="50" relative="1" as="geometry">
            <mxPoint x="661" y="826" as="sourcePoint" />
            <mxPoint x="711" y="776" as="targetPoint" />
          </mxGeometry>
        </mxCell>
        <mxCell id="f_kvPtqis9Xx08yiwRj5-84" value="Добавление автора" style="ellipse;whiteSpace=wrap;html=1;" parent="1" vertex="1">
          <mxGeometry x="229" y="839" width="101" height="35" as="geometry" />
        </mxCell>
        <mxCell id="f_kvPtqis9Xx08yiwRj5-85" value="" style="endArrow=open;html=1;rounded=0;exitX=0.27;exitY=0.963;exitDx=0;exitDy=0;exitPerimeter=0;entryX=0.633;entryY=0.005;entryDx=0;entryDy=0;entryPerimeter=0;endFill=0;" parent="1" source="NlARgI9Lwy11cCyt6wGb-10" target="f_kvPtqis9Xx08yiwRj5-84" edge="1">
          <mxGeometry width="50" height="50" relative="1" as="geometry">
            <mxPoint x="248" y="826" as="sourcePoint" />
            <mxPoint x="298" y="776" as="targetPoint" />
          </mxGeometry>
        </mxCell>
        <mxCell id="f_kvPtqis9Xx08yiwRj5-86" value="Удаление автора" style="ellipse;whiteSpace=wrap;html=1;" parent="1" vertex="1">
          <mxGeometry x="542" y="656.5" width="118" height="41" as="geometry" />
        </mxCell>
        <mxCell id="f_kvPtqis9Xx08yiwRj5-87" value="" style="endArrow=open;html=1;rounded=0;exitX=0.993;exitY=0.565;exitDx=0;exitDy=0;exitPerimeter=0;entryX=0;entryY=0.5;entryDx=0;entryDy=0;endFill=0;" parent="1" source="NlARgI9Lwy11cCyt6wGb-10" target="f_kvPtqis9Xx08yiwRj5-86" edge="1">
          <mxGeometry width="50" height="50" relative="1" as="geometry">
            <mxPoint x="467" y="678" as="sourcePoint" />
            <mxPoint x="517" y="628" as="targetPoint" />
          </mxGeometry>
        </mxCell>
        <mxCell id="f_kvPtqis9Xx08yiwRj5-88" value="" style="endArrow=open;html=1;rounded=0;entryX=0.674;entryY=0.03;entryDx=0;entryDy=0;entryPerimeter=0;endFill=0;" parent="1" target="NlARgI9Lwy11cCyt6wGb-10" edge="1">
          <mxGeometry width="50" height="50" relative="1" as="geometry">
            <mxPoint x="431" y="535" as="sourcePoint" />
            <mxPoint x="417" y="554" as="targetPoint" />
          </mxGeometry>
        </mxCell>
        <mxCell id="f_kvPtqis9Xx08yiwRj5-89" value="Прочитанно" style="ellipse;whiteSpace=wrap;html=1;" parent="1" vertex="1">
          <mxGeometry x="-170.5" y="190" width="115" height="39" as="geometry" />
        </mxCell>
        <mxCell id="f_kvPtqis9Xx08yiwRj5-90" value="Хочу прочитать" style="ellipse;whiteSpace=wrap;html=1;" parent="1" vertex="1">
          <mxGeometry x="-288" y="199.5" width="115" height="39" as="geometry" />
        </mxCell>
        <mxCell id="f_kvPtqis9Xx08yiwRj5-91" value="" style="endArrow=classic;html=1;rounded=0;entryX=0.793;entryY=0.903;entryDx=0;entryDy=0;dashed=1;entryPerimeter=0;exitX=0.919;exitY=0.227;exitDx=0;exitDy=0;exitPerimeter=0;" parent="1" source="f_kvPtqis9Xx08yiwRj5-90" target="f_kvPtqis9Xx08yiwRj5-36" edge="1">
          <mxGeometry width="50" height="50" relative="1" as="geometry">
            <mxPoint x="-180" y="229" as="sourcePoint" />
            <mxPoint x="-87" y="317" as="targetPoint" />
          </mxGeometry>
        </mxCell>
        <mxCell id="f_kvPtqis9Xx08yiwRj5-92" value="&amp;lt;&amp;lt;extend&amp;gt;&amp;gt;" style="text;html=1;align=center;verticalAlign=middle;resizable=0;points=[];autosize=1;strokeColor=none;fillColor=none;rotation=90;" parent="1" vertex="1">
          <mxGeometry x="-204.5" y="142" width="82" height="26" as="geometry" />
        </mxCell>
        <mxCell id="f_kvPtqis9Xx08yiwRj5-93" value="Любимое" style="ellipse;whiteSpace=wrap;html=1;" parent="1" vertex="1">
          <mxGeometry x="-345" y="160.5" width="115" height="39" as="geometry" />
        </mxCell>
        <mxCell id="f_kvPtqis9Xx08yiwRj5-94" value="" style="endArrow=classic;html=1;rounded=0;entryX=0.095;entryY=0.818;entryDx=0;entryDy=0;dashed=1;entryPerimeter=0;" parent="1" target="f_kvPtqis9Xx08yiwRj5-36" edge="1">
          <mxGeometry width="50" height="50" relative="1" as="geometry">
            <mxPoint x="-249" y="166" as="sourcePoint" />
            <mxPoint x="-122" y="383" as="targetPoint" />
          </mxGeometry>
        </mxCell>
        <mxCell id="f_kvPtqis9Xx08yiwRj5-95" value="&amp;lt;&amp;lt;extend&amp;gt;&amp;gt;" style="text;html=1;align=center;verticalAlign=middle;resizable=0;points=[];autosize=1;strokeColor=none;fillColor=none;rotation=95;" parent="1" vertex="1">
          <mxGeometry x="-276" y="122" width="82" height="26" as="geometry" />
        </mxCell>
        <mxCell id="f_kvPtqis9Xx08yiwRj5-96" value="Читаю" style="ellipse;whiteSpace=wrap;html=1;" parent="1" vertex="1">
          <mxGeometry x="-445" y="126.5" width="115" height="39" as="geometry" />
        </mxCell>
        <mxCell id="f_kvPtqis9Xx08yiwRj5-97" value="" style="endArrow=classic;html=1;rounded=0;dashed=1;exitX=0.948;exitY=0.719;exitDx=0;exitDy=0;exitPerimeter=0;entryX=0.024;entryY=0.666;entryDx=0;entryDy=0;entryPerimeter=0;" parent="1" source="f_kvPtqis9Xx08yiwRj5-96" target="f_kvPtqis9Xx08yiwRj5-36" edge="1">
          <mxGeometry width="50" height="50" relative="1" as="geometry">
            <mxPoint x="-210" y="326" as="sourcePoint" />
            <mxPoint x="-167" y="371" as="targetPoint" />
          </mxGeometry>
        </mxCell>
        <mxCell id="f_kvPtqis9Xx08yiwRj5-98" value="&amp;lt;&amp;lt;extend&amp;gt;&amp;gt;" style="text;html=1;align=center;verticalAlign=middle;resizable=0;points=[];autosize=1;strokeColor=none;fillColor=none;rotation=-45;" parent="1" vertex="1">
          <mxGeometry x="-342" y="96" width="82" height="26" as="geometry" />
        </mxCell>
        <mxCell id="A2Evy-cfN4QG9ZRIv8ZK-1" value="&amp;lt;&amp;lt;include&amp;gt;&amp;gt;" style="text;html=1;align=center;verticalAlign=middle;resizable=0;points=[];autosize=1;strokeColor=none;fillColor=none;rotation=-90;" parent="1" vertex="1">
          <mxGeometry x="-3" y="124" width="84" height="26" as="geometry" />
        </mxCell>
        <mxCell id="A2Evy-cfN4QG9ZRIv8ZK-3" value="&amp;lt;&amp;lt;include&amp;gt;&amp;gt;" style="text;html=1;align=center;verticalAlign=middle;resizable=0;points=[];autosize=1;strokeColor=none;fillColor=none;rotation=45;" parent="1" vertex="1">
          <mxGeometry x="-118" y="124" width="84" height="26" as="geometry" />
        </mxCell>
      </root>
    </mxGraphModel>
  </diagram>
</mxfile>
